<svg preserveAspectRatio="xMidYMid meet" overflow="visible" style="display: block;" viewBox="0 0 20 17.5016" fill="none" xmlns="http://www.w3.org/2000/svg">
<path id="icon" fill-rule="evenodd" clip-rule="evenodd" d="M11.5436 5.39197C12.3682 4.87669 12.9168 3.96074 12.9168 2.91667C12.9168 1.30584 11.611 0 10.0002 0C8.38933 0 7.0835 1.30584 7.0835 2.91667C7.0835 3.96068 7.63203 4.87658 8.45661 5.39188C8.1088 5.57349 7.78663 5.82067 7.50864 6.13341L6.63393 7.11745L5.17823 5.64713C5.03054 5.49796 4.87152 5.37748 4.70552 5.28366C4.89344 4.93262 5 4.53149 5 4.10547C5 2.72476 3.88071 1.60547 2.5 1.60547C1.11929 1.60547 0 2.72476 0 4.10547C0 5.2087 0.714609 6.14502 1.70619 6.47681C1.62742 6.72952 1.5956 7.008 1.62342 7.30632L2.29213 14.4778C2.45192 16.1914 3.89001 17.5016 5.61106 17.5016H14.3901C16.1105 17.5016 17.5483 16.1923 17.7088 14.4794L18.3814 7.30466C18.4093 7.00633 18.3777 6.72783 18.299 6.47507C19.2879 6.14175 20 5.20677 20 4.10547C20 2.72476 18.8807 1.60547 17.5 1.60547C16.1193 1.60547 15 2.72476 15 4.10547C15 4.53152 15.1066 4.93269 15.2945 5.28375C15.1306 5.377 14.9735 5.49631 14.8275 5.64366L13.3664 7.11781L12.4914 6.13341C12.2134 5.82072 11.8913 5.57357 11.5436 5.39197ZM11.2502 2.91667C11.2502 3.60702 10.6905 4.16667 10.0002 4.16667C9.30981 4.16667 8.75016 3.60702 8.75016 2.91667C8.75016 2.22631 9.30981 1.66667 10.0002 1.66667C10.6905 1.66667 11.2502 2.22631 11.2502 2.91667ZM2.5 4.9388C2.96024 4.9388 3.33333 4.56571 3.33333 4.10547C3.33333 3.64523 2.96024 3.27214 2.5 3.27214C2.03976 3.27214 1.66667 3.64523 1.66667 4.10547C1.66667 4.56571 2.03976 4.9388 2.5 4.9388ZM17.5 4.9388C17.9602 4.9388 18.3333 4.56571 18.3333 4.10547C18.3333 3.64523 17.9602 3.27214 17.5 3.27214C17.0398 3.27214 16.6667 3.64523 16.6667 4.10547C16.6667 4.56571 17.0398 4.9388 17.5 4.9388ZM3.7039 11.6667L3.28289 7.15158C3.24656 6.76204 3.7186 6.54173 3.99385 6.81974L6.07447 8.92127C6.23646 9.08488 6.45891 9.17418 6.68906 9.16799C6.91921 9.16181 7.13655 9.06068 7.28951 8.8886L8.75432 7.24069C9.4173 6.49483 10.5827 6.49483 11.2457 7.24069L12.7105 8.8886C12.8634 9.06062 13.0806 9.16174 13.3107 9.16799C13.5408 9.17423 13.7632 9.08505 13.9252 8.92158L16.0112 6.81691C16.2866 6.53905 16.7585 6.7596 16.722 7.14911L16.2985 11.6667H3.7039ZM3.85931 13.3333L3.9516 14.323C4.03149 15.1798 4.75054 15.835 5.61106 15.835H14.3901C15.2503 15.835 15.9692 15.1803 16.0494 14.3238L16.1423 13.3333H3.85931Z" fill="var(--fill-0, #393939)"/>
</svg>
