<svg preserveAspectRatio="xMidYMid meet" overflow="visible" style="display: block;" viewBox="0 0 18.3333 18.3364" fill="none" xmlns="http://www.w3.org/2000/svg">
<g id="icon">
<path d="M4.16667 5.41667C4.16667 4.72631 4.72631 4.16667 5.41667 4.16667H10.4167C11.107 4.16667 11.6667 4.72631 11.6667 5.41667V6.66667L13.4554 4.87796C13.7179 4.61548 14.1667 4.80138 14.1667 5.17259V9.82741C14.1667 10.1986 13.7179 10.3845 13.4554 10.122L11.6667 8.33333V9.58333C11.6667 10.2737 11.107 10.8333 10.4167 10.8333H5.41667C4.72631 10.8333 4.16667 10.2737 4.16667 9.58333V5.41667Z" fill="var(--fill-0, #393939)"/>
<path fill-rule="evenodd" clip-rule="evenodd" d="M4.16667 0C1.86548 0 0 1.86548 0 4.16667V10.8333C0 13.1345 1.86548 15 4.16667 15H5.83333V16.6664C5.83354 18.1511 7.62863 18.8948 8.67851 17.8449L11.5234 15H14.1667C16.4679 15 18.3333 13.1345 18.3333 10.8333V4.16667C18.3333 1.86548 16.4679 0 14.1667 0H4.16667ZM7.5 13.3333H4.16667C2.78596 13.3333 1.66667 12.214 1.66667 10.8333V4.16667C1.66667 2.78596 2.78596 1.66667 4.16667 1.66667H14.1667C15.5474 1.66667 16.6667 2.78596 16.6667 4.16667V10.8333C16.6667 12.214 15.5474 13.3333 14.1667 13.3333H10.8331L7.5 16.6664L7.5 13.3333Z" fill="var(--fill-0, #393939)"/>
</g>
</svg>
